# xmcd CD database file
#
# Track frame offsets:
#	150
#	18645
#	40625
#	64170
#	78592
#	97030
#
# Disc length: 1542 seconds
#
# Revision: 2
# Processed by: cddbd v1.4PL0 Copyright (c) Steve Scherf et al.
# Submitted via: CDex 1.50beta8
#
DISCID=47060406
DTITLE=James Madison Highschool Jazz Ensemble - directed by Zachary Smith
DYEAR=1997
DGENRE=Jazz
TTITLE0=Buena
TTITLE1=Filthy McNasty
TTITLE2=Li'l Darlin'
TTITLE3=In the Mood
TTITLE4=Four Minute Miles
TTITLE5=Cycle
EXTD=YEAR: 1997
EXTT0=
EXTT1=
EXTT2=
EXTT3=
EXTT4=
EXTT5=
PLAYORDER=
